<svg xmlns="http://www.w3.org/2000/svg" width="744" height="485" viewBox="0 0 744 485" fill="none">
    <g clip-path="url(#a)">
        <path fill="#313131" stroke="#000"
              d="M306 446.846c-15.6 4-36.5 27.333-45 38.5l203.5-.5c-5.6-12-19-29-27-36l-4.5-2c-35.833-1.667-111.4-4-127 0Z"/>
        <path fill="#fff"
              d="M301.5 434.846v15.5c12.5 7 46.5 9.5 67.5 9.5 24 0 54.833-6.667 68.5-11v-7l-69.5-11.5-66.5 4.5Z"/>
        <path fill="#000" fill-rule="evenodd"
              d="M344.734 431.92c13.703 3.531 38.834 10.156 45.266 12.426 5.391 1.902 17.841 6.444 26.839 9.74 8.396-1.766 15.672-3.659 20.661-5.24v-7l-69.5-11.5-23.266 1.574Z"
              clip-rule="evenodd" opacity=".5"/>
        <path fill="#000" stroke="#000"
              d="M314 41.846c3.2 2.8 5 4.833 5.5 5.5-30.5.5-43.5 25-43.5 25s8.533-2.073 17 1.5c7.47 3.151 14.5 12.47 14.5 19.5 0 3 2 25.5-36.5 32.5-30.8 5.6-55.5-4.334-64-10 .333 5.833 1.7 20.4 4.5 32 2.8 11.6 12.5 24.5 17 29.5-1.167 0-7.1.2-21.5 1s-24.667-1-28-2c2 4.333 7.9 15.8 15.5 27s20.833 19 26.5 21.5c-1.333 2.5-5.5 9.5-11.5 15.5s-14.167 10.333-17.5 12c4.167.333 12.5 1 23.5 1.5s232.5-1 257-4.5c19.6-2.8 38.5-18.834 45.5-26.5 0 0-13.85 1.232-23 .5-12.5-1-18.5-5.5-18.5-5.5s18.349-8.862 28.5-17.5c10.758-9.156 24-28 24-28s-16.463 1.546-27 1c-10.038-.521-25.5-3.5-25.5-3.5s12.319-11.663 18.5-20.5c6.557-9.376 13.5-26 13.5-26-14 3.5-25 4.3-35 3.5-12.5-1-14.5-.5-32.5-8.5s-39-46.5-45-52-19-24-46.5-32.5c-22-6.8-39.167.167-45 4.5 1.833 0 6.3.7 9.5 3.5Z"/>
        <path fill="#FFC498" d="M299.5 186.846c-3.2 0-5.333-3.667-6-5.5l1.5-13 11-1 1.5 17c-1.333.833-4.8 2.5-8 2.5Z"/>
        <path fill="#DF7D5E" d="M300 180.346c-2.4 0-3.333-2.334-3.5-3.5l5.5-11.5 3-.5v14c-.667.5-2.6 1.5-5 1.5Z"/>
        <path fill="#FFC498" d="M414 191.346c-5.6 2.4-9.333-1.667-10.5-4l3-22 16.5 17c-.667 2-3.4 6.6-9 9Z"/>
        <path fill="#DF7D5E" d="M412 185.346c-4.4 1.6-6.167-.667-6.5-2l1.5-13.5h2.5l8.5 11.5c-.167.666-1.6 2.4-6 4Z"/>
        <path stroke="#000"
              d="M301.5 434.846v15.5c12.5 7 46.5 9.5 67.5 9.5 24 0 54.833-6.667 68.5-11v-7l-69.5-11.5-66.5 4.5Z"/>
        <path fill="#FE5C83"
              d="M259 238.846c12.4-8 43.5-16.667 57.5-20l79.5-7.5c4.833 1.166 20 5.4 42 13 27.5 9.5 38.5 20 42.5 24s9.5 15 12 21 7 23.5 8 33.5-.5 34.5-2 45-10 44.5-12.5 50-9.5 26.5-12.5 28c-2.4 1.2-13.333-2.167-18.5-4 .333 1.833 1 6.2 1 9 0 3.5-2.5 6.5-7.5 10.5-4 3.2-9 4.666-11 5v-5c-.167.333-1.9 1.1-7.5 1.5-7 .5-26.5-2-34-3.5-6-1.2-32.5-4.834-45-6.5-2.333.666-8.7 2.4-15.5 4-8.5 2-18 4-24 4s-11 1-23-5.5c-9.6-5.2-11.667-14.167-11.5-18-1.667 1.5-6.4 5.5-12 9.5s-13.667 5-17 5c-7.5 0-10.5-5-19-21.5s-13.5-49-13.5-63.5-.5-39.5 9.5-65.5 18.5-32.5 34-42.5Z"/>
        <path fill="#FE5C83"
              d="M259 238.846c12.4-8 43.5-16.667 57.5-20l79.5-7.5c4.833 1.166 20 5.4 42 13 27.5 9.5 38.5 20 42.5 24s9.5 15 12 21 7 23.5 8 33.5-.5 34.5-2 45-10 44.5-12.5 50-9.5 26.5-12.5 28c-2.4 1.2-13.333-2.167-18.5-4 .333 1.833 1 6.2 1 9 0 3.5-2.5 6.5-7.5 10.5-4 3.2-9 4.666-11 5v-4.5c-1.373.686-2.9.6-8.5 1-7 .5-25.5-2-33-3.5-6-1.2-32.5-4.834-45-6.5-2.333.666-8.7 2.4-15.5 4-8.5 2-18 4-24 4s-11 1-23-5.5c-9.6-5.2-11.667-14.167-11.5-18-1.667 1.5-6.4 5.5-12 9.5s-13.667 5-17 5c-7.5 0-10.5-5-19-21.5s-13.5-49-13.5-63.5-.5-39.5 9.5-65.5 18.5-32.5 34-42.5Z"/>
        <path stroke="#000" stroke-linecap="round" stroke-linejoin="round"
              d="M351 432.846c-2.333.666-8.7 2.4-15.5 4-8.5 2-18 4-24 4s-11 1-23-5.5c-9.6-5.2-11.667-14.167-11.5-18-1.667 1.5-6.4 5.5-12 9.5s-13.667 5-17 5c-7.5 0-10.5-5-19-21.5s-13.5-49-13.5-63.5-.5-39.5 9.5-65.5 18.5-32.5 34-42.5c12.4-8 43.5-16.667 57.5-20l79.5-7.5c4.833 1.166 20 5.4 42 13 27.5 9.5 38.5 20 42.5 24s9.5 15 12 21 7 23.5 8 33.5-.5 34.5-2 45-10 44.5-12.5 50-9.5 26.5-12.5 28c-2.4 1.2-13.333-2.167-18.5-4 .333 1.833 1 6.2 1 9 0 3.5-2.5 6.5-7.5 10.5-4 3.2-9 4.666-11 5v-4.5m-86.5-9c12.5 1.666 39 5.3 45 6.5 7.5 1.5 26 4 33 3.5 5.6-.4 7.127-.314 8.5-1m-86.5-9c7.5-2 26.5-7 35-6.5m51.5 15.5c2-1 2.5-1.5 3.5-2.5"/>
        <path stroke="#000" d="M277 417.5c10-8.833 39.5-31.1 77.5-49.5"/>
        <path fill="#FFC498"
              d="M310.525 213.346c-4.4-9.2-6.833-31.834-7.5-42v-6l23.5-35.5 69.5 2.5 12.5 34.5-1 20.5c0 1.833-.2 6.4-1 10-1 4.5-4 16-5.5 19.5s-6 13.5-10.5 17-12.5 5.5-28.5 6.5-31.5-1-38.5-8-7.5-7.5-13-19Z"/>
        <path fill="#fff"
              d="M386.025 169.846c-5.616 0-11.018 4.291-14.655 7.71-1.39 1.305-1.609 3.466-.267 4.82 4.286 4.324 10.683 6.546 14.922 6.97 5 .5 9-2 10.5-3s7.5-6 6.5-9.5-10-7-17-7Z"/>
        <path stroke="#000" stroke-linecap="round"
              d="M370 180.346c.128-.45.373-.958.716-1.5m2.017 5c4.163 3.362 9.563 5.127 13.292 5.5 5 .5 9-2 10.5-3 .745-.497 2.596-1.977 4.151-3.771m1.254-7.438c-.555-.563-1.284-1.111-2.142-1.626m-29.072 5.335c2.329-3.684 9.209-9 15.309-9 4.694 0 10.286 1.573 13.763 3.665m-29.072 5.335c1.928-3.334 7.518-9.5 16.284-9.5 6.008 0 11.026 2.943 12.788 4.165"/>
        <path fill="#04E1FE" fill-rule="evenodd"
              d="M372.897 176.17c-.017.991.52 2.103 2.129 3.176.826.55 1.55 1.05 2.202 1.5 2.899 2 4.348 3 6.797 3 3 0 8-4.5 9-6.5s1.5-3.5 0-5.5a7.454 7.454 0 0 0-1.342-1.359c-1.904-.407-3.848-.641-5.658-.641-4.875 0-9.59 3.234-13.128 6.324Z"
              clip-rule="evenodd"/>
        <path fill="#000"
              d="m375.026 179.346.277-.416-.277.416Zm-2.129-3.176-.329-.377-.167.146-.004.222.5.009Zm4.331 4.676-.284.412.284-.412Zm15.797-9-.4.3.4-.3Zm-1.342-1.359.311-.392-.092-.072-.114-.025-.105.489Zm-16.38 8.443c-1.516-1.011-1.919-1.982-1.906-2.752l-1-.017c-.021 1.214.651 2.467 2.351 3.601l.555-.832Zm2.209 1.504c-.652-.449-1.379-.951-2.209-1.504l-.555.832c.822.548 1.544 1.046 2.196 1.496l.568-.824Zm6.513 2.912c-2.269 0-3.592-.896-6.513-2.912l-.568.824c2.876 1.984 4.452 3.088 7.081 3.088v-1Zm8.553-6.224c-.218.436-.679 1.051-1.324 1.742a20.628 20.628 0 0 1-2.288 2.089c-.856.673-1.765 1.277-2.633 1.711-.877.438-1.67.682-2.308.682v1c.863 0 1.819-.32 2.755-.787.945-.473 1.911-1.118 2.804-1.82a21.611 21.611 0 0 0 2.401-2.193c.667-.715 1.206-1.413 1.488-1.977l-.895-.447Zm.047-4.976c.692.921.892 1.68.839 2.414-.055.766-.386 1.562-.886 2.562l.895.447c.5-1 .918-1.954.989-2.938.072-1.016-.228-2.007-1.037-3.085l-.8.6Zm-1.252-1.267c.492.39.916.818 1.252 1.267l.8-.6a7.974 7.974 0 0 0-1.431-1.451l-.621.784Zm.415-.881c-1.933-.413-3.912-.652-5.763-.652v1c1.769 0 3.677.229 5.554.63l.209-.978Zm-5.763-.652c-5.074 0-9.911 3.351-13.457 6.447l.658.753c3.531-3.083 8.122-6.2 12.799-6.2v-1Z"/>
        <path fill="#DF7D5E"
              d="M357.524 199.846c.5 0 2.5 0 1.5-1.5-.74-1.112-2.272-.98-3-.501-1.338.887 1 2.001 1.5 2.001Z"/>
        <path stroke="#000"
              d="M332.5 211.846c4.333 2.666 13.5 6.5 25 7 10.5.456 22.5-5.5 27-7.5m-52 .5 1-1m-1 1-1.5 1m53.5-1.5-1-1.5m1 1.5 1.5 1.5"/>
        <path fill="#000"
              d="M274.5 344.846c.8 1.2-6.333 4.333-10 5.5 7.5-1.5 14.5-3.5 21-4.5l-1-49-10 44.5-5 1c1.333.666 4.2 1.3 5 2.5ZM426 341.346l4-47c-.8 29.2 2 42.5 3.5 45.5l9 .5c-.333.166-1.3.2-2.5 1s-.5 2.666 0 3.5l-14-3.5ZM462.5 345.346c-2.5-1.5-9-3.167-12-4 3.5-.334 12.2-2.1 15-.5 3.5 2 5 5.5 4.5 6.5s-5-.5-7.5-2Z"
              opacity=".6"/>
        <path fill="#000" fill-rule="evenodd"
              d="M457.079 422.559a120.59 120.59 0 0 1-2.077-.713c.333 1.833 1 6.2 1 9 0 3.5-2.5 6.5-7.5 10.5-4 3.2-9 4.666-11 5v-5c-.167.333-1.9 1.1-7.5 1.5-7 .5-26.5-2-34-3.5-5.833-1.167-31.041-4.633-43.925-6.357 14.544-3.677 35.521-8.287 34.425-6.643-1 1.5-5.5 4.166-9 5 9.667 3.166 31.4 9.1 41 7.5 12-2 18.5-7 20.5-11 1.6-3.2 1.667-10 1.5-13l15 6.5 1.577 1.213Z"
              clip-rule="evenodd" opacity=".6"/>
        <path fill="#fff"
              d="M352.117 281.655c-1.237-.796-1.202-28.537-1.03-41.312l13.913-.497v18.416c0 4.977-1.547 23.891-2.577 24.388-1.031.498-8.76 0-10.306-.995Z"/>
        <path fill="#191818"
              d="M347.5 161.505v2.963a.988.988 0 0 1-1.305.942c-7.133-2.432-17.226-6.564-25.695-6.564-3.732 0-10.365.959-14.531 1.657-.813.136-1.443-.709-1.075-1.446l1.387-2.774a.954.954 0 0 1 .699-.521c1.416-.227 5.217-.721 12.52-1.416 8.121-.774 21.259 3.687 27.394 6.244a.987.987 0 0 1 .606.915Z"/>
        <path fill="#fff"
              d="M319.526 171.346c10-4 21.167 2.333 25.5 6 .999 2-6.499 13-16.499 12-8-.8-13.667-6.667-15.501-9.5-1.834-2.834-3.5-4.5 6.5-8.5Z"/>
        <path fill="#04E1FE" fill-rule="evenodd"
              d="M318.952 171.578c-.812 1.79-1.369 3.661-.927 4.768 1 2.5 8 8 11.5 8s11-5 11.5-6.5c.234-.702.023-2.123-.292-3.482-5.437-3.166-13.655-6.039-21.207-3.018-.196.078-.387.155-.574.232Z"
              clip-rule="evenodd"/>
        <path fill="#000"
              d="m318.025 176.346.465-.186-.465.186Zm.927-4.768-.19-.463-.184.076-.082.18.456.207Zm22.073 6.268.475.158-.475-.158Zm-.292-3.482.487-.113-.049-.21-.186-.109-.252.432Zm-21.207-3.018.186.464-.186-.464Zm-1.036 4.814c-.165-.411-.163-1.033.016-1.833.175-.783.503-1.664.901-2.542l-.911-.414c-.413.912-.77 1.862-.966 2.738-.192.86-.247 1.727.031 2.422l.929-.371Zm11.035 7.686c-.763 0-1.776-.306-2.917-.85-1.13-.538-2.338-1.286-3.475-2.117-1.138-.83-2.195-1.734-3.024-2.579-.843-.858-1.408-1.612-1.619-2.14l-.929.371c.289.722.974 1.594 1.834 2.47a25.984 25.984 0 0 0 3.148 2.686c1.175.857 2.436 1.641 3.634 2.212 1.187.565 2.362.947 3.348.947v-1Zm11.026-6.158c-.026.079-.134.255-.386.528-.24.258-.569.56-.972.892-.807.661-1.88 1.413-3.052 2.122-1.171.709-2.428 1.368-3.602 1.848-1.185.485-2.237.768-3.014.768v1c.974 0 2.172-.343 3.393-.842 1.233-.505 2.538-1.189 3.741-1.918 1.204-.729 2.318-1.508 3.168-2.205.424-.349.791-.683 1.071-.985.267-.288.503-.597.602-.892l-.949-.316Zm-.305-3.211c.155.669.282 1.341.342 1.925.062.604.044 1.043-.037 1.286l.949.316c.153-.459.146-1.082.083-1.704a17.223 17.223 0 0 0-.363-2.049l-.974.226Zm-20.534-2.667c7.335-2.934 15.376-.155 20.769 2.986l.504-.864c-5.481-3.192-13.875-6.158-21.645-3.051l.372.929Zm-.571.231.571-.231-.372-.929-.578.234.379.926Z"/>
        <path fill="#DF7D5E"
              d="M358.525 192.346c-.4 3.2 1.5 5 2.5 5.5 2.5.5 4-2.5 4.5-3.5s.5-2 0-3-3.5-5.5-4.5-5.5-2 2.5-2.5 6.5Z"/>
        <path fill="#fff" d="M387.5 173.346c0-1.6 1.333-2 2-2 .833.166 2.6.7 3 1.5.5 1-.5 3-2 2.5s-3 0-3-2Z"/>
        <path fill="#000"
              d="M473.5 356.846c-2.4-2.4-7.833-1.834-10-1.5 6.5 4 12.8 11.3 14 10.5 1.5-1-1-6-4-9ZM235.499 367.846c2-4 7.334-4.834 9.501-5-1.167 1.166-4.301 3.4-5.501 5-1.5 2-6.5 5-4 0Z"
              opacity=".6"/>
        <path fill="#fff" d="M335.501 176.346c-1.6-1.2-.501-2.75.5-3 2-.5 2.999 1.792 2.999 2.5 0 1-1.499 2-3.499.5Z"/>
        <path fill="#FFC498"
              d="M328.525 272.346c3.6 4.4 4.166 9.166 4 11l7.975 10.5-24 22.5-8-7c-.333.5-1.8 1.2-5 0-4-1.5-12.5-11.5-14.5-13.5s-15.5-15.5-17-16.5-4.5-1.5-6.5-2-10.5-2-17.5-1.5c-5.6.4-12.842-.167-14.5-.5-5-2-5.975-5-5.975-6s7-1 10-1 7.975-.5 9.475-1 2.525-1 12.025-1.5 11-2 10.5-3-17-7-24-7-15.5-3-19-5-2.5-5.5-2-6 15.5 3 19.5 2.5 10.5 1 13.5 2 15.5 2.5 16.5 1 1-3 .5-4.5-15-16-18.5-19.5-10.704-9.33-14.025-13c-4.525-5-4.475-10-4.475-11.5s.5-4 2-3.5 3 2 8.5 8 12.5 9 16 13 10.5 11 15 15.5 5.5 4 6 3.5-.5-2-2-5-5-12-6-14-5-8-7.5-13-5-11-5-17 2.5-7 4-7 3.5 5 4.5 7 9.5 18 10 19 6.5 8.5 7.5 11 8.5 14.5 9.5 15.5 5.5 6.5 6.5 9.5 3.5 7 5.5 9.5 12 13 16.5 18.5Z"/>
        <path stroke="#181717" stroke-linecap="round" stroke-linejoin="round"
              d="M274.025 250.346c1-1.5 1-3 .5-4.5s-15-16-18.5-19.5-10.704-9.33-14.025-13c-4.525-5-4.475-10-4.475-11.5s.5-4 2-3.5 3 2 8.5 8 12.5 9 16 13 10.5 11 15 15.5 5.5 4 6 3.5-.5-2-2-5-5-12-6-14-5-8-7.5-13-5-11-5-17 2.5-7 4-7 3.5 5 4.5 7 9.5 18 10 19 6.5 8.5 7.5 11 8.5 14.5 9.5 15.5 5.5 6.5 6.5 9.5 3.5 7 5.5 9.5 12 13 16.5 18.5c3.6 4.4 4.166 9.166 4 11l7.975 10.5-24 22.5-8-7c-.333.5-1.8 1.2-5 0-4-1.5-12.5-11.5-14.5-13.5s-15.5-15.5-17-16.5-4.5-1.5-6.5-2-10.5-2-17.5-1.5c-5.6.4-12.842-.167-14.5-.5-5-2-5.975-5-5.975-6s7-1 10-1 7.975-.5 9.475-1 2.525-1 12.025-1.5 11-2 10.5-3-17-7-24-7-15.5-3-19-5-2.5-5.5-2-6 15.5 3 19.5 2.5 10.5 1 13.5 2 15.5 2.5 16.5 1Zm0 0c.825-.667 2.575-2.2 2.975-3"/>
        <path stroke="#000" stroke-linecap="round" d="M290 245.846c1.833 1.666 5.6 6 6 10"/>
        <path fill="#FFC498"
              d="M387 274.846c-2 1.6-2.167 3.666-2 4.5l-9 8.5 20 24.5 11-6c2.167-.167 7.2-.9 10-2.5 3.5-2 11-10.5 16.5-17 4.4-5.2 6.833-12.5 7.5-15.5 1.833-1.167 6.3-4.3 9.5-7.5 4-4 6-4 14.5-9s7-11.5 7-12-.5-1.5-3.5.5c-2.4 1.6-7 3.333-9 4 5-3.667 15.4-11.5 17-13.5 2-2.5 2.5-7 1.5-7.5s-3 .5-6 2.5-10 6-18 10c-7.497 3.748-10.5 5-11 5s-1.5-.5-1.5-1.5 6-10 9-13.5 11-12.5 12.5-15.5 3-7.5 3-10.5-.5-4.5-1.5-4.5c-.8 0-4.5 5-6 7.5-2 2.666-6.8 8.9-10 12.5-4 4.5-8.239 9.238-11 12-1.5 1.5-4.5 4-5.5 3.5-.447-.224 5.5-18 8.5-24s3.5-10 3-14-1.5-5.5-2.5-6-2 2-3 4.5-5 10.5-7 15.5-8 16.5-10.5 20-9 10.5-10 12.5-3 7.5-6.5 12.5-14.5 18-17 20Z"/>
        <path stroke="#191818" stroke-linecap="round"
              d="M432 233.846c-.447-.224 5.5-18 8.5-24s3.5-10 3-14-1.5-5.5-2.5-6-2 2-3 4.5-5 10.5-7 15.5-8 16.5-10.5 20-9 10.5-10 12.5-3 7.5-6.5 12.5-14.5 18-17 20c-2 1.6-2.167 3.666-2 4.5l-9 8.5 20 24.5 11-6c2.167-.167 7.2-.9 10-2.5 3.5-2 11-10.5 16.5-17 4.4-5.2 6.833-12.5 7.5-15.5 1.833-1.167 6.3-4.3 9.5-7.5 4-4 6-4 14.5-9s7-11.5 7-12-.5-1.5-3.5.5c-2.4 1.6-7 3.333-9 4m-27.5-13.5c1 .5 4-2 5.5-3.5 2.761-2.762 7-7.5 11-12 3.2-3.6 8-9.834 10-12.5 1.5-2.5 5.2-7.5 6-7.5 1 0 1.5 1.5 1.5 4.5s-1.5 7.5-3 10.5-9.5 12-12.5 15.5-9 12.5-9 13.5 1 1.5 1.5 1.5m-11-10c-3.167 3.166-9.7 9.1-10.5 11.5m21.5-1.5c.5 0 3.503-1.252 11-5 8-4 15-8 18-10s5-3 6-2.5.5 5-1.5 7.5c-1.6 2-12 9.833-17 13.5m-16.5-3.5-10 6.5m26.5-3c-5.833 3.5-18.5 11-22.5 13m-6.5-8-1.5 1.5"/>
        <path fill="#191818"
              d="M367.998 158.846c-3.791 2.369-2.998 4.5-2.498 5.5.999 0 4-1.5 10-5s11-5 16.5-5c4.4 0 11.332 1 13.999 1.5l-.5-2.5c-5.5-.667-11.999-2.5-20.501-1-4.431.782-12.998 4-17 6.5Z"/>
        <path fill="#FE5C83" stroke="#000"
              d="M383.501 281.846c-1.6-.4-6.5 4.666-9.5 7.5-.5.5-.001 1.5 1.999 4 .572.714 2.552 2.298 3.5 3.5 2.369 3.003 5.43 6.358 9.001 11 4 5.2 7 10.166 8 12 0-1 10.5-7 10-10.5s.5-7-7.5-16.5-13.5-10.5-15.5-11Z"/>
        <path fill="#FE5C83"
              d="M314 300.846c-7 7.499-4.999 9.5-4.999 13 0 4.5 5 3.5 6.5 8 .811 2.431 2.275 4.088 3.5 5.06.588.468 1.121.777 1.5.94 2-5.5 5.42-11.295 10-16.5a52.84 52.84 0 0 1 2.87-3c2.088-2.022 4.241-3.806 6.185-5.307a112.875 112.875 0 0 1 2.259-1.693c2.676-1.953 4.578-3.177 4.686-3.5.163-.489.061-.977-.255-1.5-.364-.603-1.012-1.252-1.863-2-.678-.595-1.485-1.253-2.382-2-3-2.5-2-3.5-4.5-5s-3-.5-5.5 0-11.447 6.478-18.001 13.5Z"/>
        <path stroke="#000" stroke-linecap="round" stroke-linejoin="round"
              d="M319.001 326.906c.588.468 1.121.777 1.5.939 2-5.5 5.42-11.294 10-16.5.45-.511.91-1.011 1.377-1.5.491-.513 3.122-3.5 5.122-5m-17.999 22.061c-1.225-.973-2.689-2.629-3.5-5.061-1.5-4.5-6.5-3.499-6.5-7.999 0-3.5-2.001-5.501 4.999-13.001 6.554-7.021 15.501-12.999 18.001-13.499 2.5-.5 3-1.5 5.5 0s1.5 2.499 4.5 4.999c.347.29.681.566.999.83m-23.999 33.731c0 6.98.3 22.139 1.5 26.939 1.5 6 2 5 6 5.5s39 11 51.5 19 26 14.5 32.5 18.5 36 22 44.5 25m-108.755-125.5c.316.524.418 1.012.255 1.5-.108.323-2.01 1.548-4.686 3.5a99.691 99.691 0 0 0-2.259 1.694m6.69-6.694c3.918-2.333 14.455-6.6 27.255-5 1 .5 3.499 2.3 5.499 5.5m-32.754-.5c-.364-.603-1.012-1.252-1.863-2-.416-.364-.88-.752-1.383-1.17m0 0c3-3.943 9.908-10.17 11.5-10.33 5-.499 13.5 3.5 19.5 6M379 296.846c3.167 5.5 10.8 17.8 16 23 6.5 6.5 15 15 23 19 2.373 1.186 5.714 2.197 9.5 3.175m49 22.825c-3.833-3-13.5-10.1-21.5-14.5-7.034-3.869-18.521-6.006-27.5-8.325m0 0c1.898-.516 4.279-.921 7-1.142m32 5.967c-10.984-5.493-23.249-6.679-32-5.967m0 0c-1.5-2.845-4.5-12.333-4.5-27.533v-22.5"/>
        <path stroke="#000" stroke-linecap="round"
              d="M316 324.346c-5.667 6-18.9 18.2-28.5 21-12 3.5-17.5 2-30.5 9-10.4 5.6-16.5 13-20 15.5"/>
        <path stroke="#000" stroke-linecap="round"
              d="M244.5 348.346c3-2.167 9.2-5.6 16-6 6.8-.4 21 1.987 25 3.154M284.5 296.846l1 48.654M345.026 177.345c-4.333-3.666-15.5-10-25.5-6l-.526.213m26.026 5.787c.728 1.457-3.053 7.69-9.026 10.581m9.026-10.581c-14.026-13.499-26.526-6.499-29.92-4m-1.606 6.501c-1.495-2.31-3.353-3.845 1.606-6.501m0 0c-1.036-.5-3.306-1.8-4.106-3m4.106 3c1.014-.543 2.295-1.133 3.894-1.787m0 0c-.763-.183-2.61-1.114-3.894-3.38m.413 14.668c2.789 2.785 7.306 5.929 13.008 6.499 1.377.138 2.707.048 3.973-.214M395.5 169.346l2.5-2.5M400 171.346l2.5-2"/>
        <path stroke="#000" stroke-linecap="round"
              d="m407.5 185.846 1.025-19-12.5-34.5-69.5-2.5-23.525 35 .5 6.5c.667 10.166 2.625 32.8 7.025 42 5.5 11.5 6 12 13 19s22.5 9 38.5 8 24-3 28.5-6.5 9-13.5 10.5-17 4.5-15 5.5-19.5c.389-1.747.635-3.721.787-5.5l.188-3"/>
        <path fill="#000"
              d="M307.5 162.346c-9.2 12-17.833 24.666-21 29.5l-5.5-37 56.5-44.5 86 9c4.833 29.166 11.6 84.5 0 72.5s-25.5-42-31-55.5c0 0-19.469 8.598-30.5 15.5-12.358 7.731-28.5 22.5-28.5 22.5l-6.5-37c-2.667 3.333-10.3 13-19.5 25Z"/>
        <path stroke="#000"
              d="M286.5 191.846c3.167-4.834 11.8-17.5 21-29.5s16.833-21.667 19.5-25l6.5 37s16.142-14.769 28.5-22.5c11.031-6.902 30.5-15.5 30.5-15.5 5.5 13.5 19.4 43.5 31 55.5"/>
        <path fill="#000"
              d="M374 290.346c0-.5.5-1.9 2.5-3.5.182-.146.316-.283.413-.407.007-.919.507-.646 0 0-.009 1.327 1.012 5.14 7.587 13.906 7.5 10 12.5 15.5 15.5 16.5l-3.5 2.5c-3-4.666-9.5-14.5-11.5-16.5s-8.167-9.166-11-12.499ZM316.5 323.846c.4 1.2 2.833 3.166 4 4-.167-.5.579-4.289 5.5-11 5.499-7.5 6.999-8.5 11-12-.667 0-1.9 0-7.5 4-7 5-13.5 13.5-13 15ZM344.5 295.346c-.8.8-6.5 7.499-5 7.499 2.334-1.666 6.6-4.366 7-4.766.5-.5-1-3.733-2-2.733Z"
              opacity=".6"/>
    </g>
    <defs>
        <clipPath id="a">
            <path fill="#fff" d="M0 0h744v485H0z"/>
        </clipPath>
    </defs>
</svg>