<svg xmlns="http://www.w3.org/2000/svg" width="744" height="485" viewBox="0 0 744 485" fill="none">
    <path fill="url(#a)" d="M0 219h744v266H0z"/>
    <path stroke="#fff" stroke-width="1.5"
          d="M564.071 160c0 11.027-4.793 18.378-13.071 18.378 7.842 0 13.071 6.892 13.071 17 0-9.649 3.921-17 12.199-17-6.971.361-12.199-6.892-12.199-18.378ZM501.805 141.593a17.125 17.125 0 0 0 1.616-3.63c.112-.363.316-2.993.398-1.517.059 1.068.388 2.277.448 3.357.058 1.059 1.144 1.616 1.566 2.462M508.569 146.064c1.139 1.174 1.871 1.79 3.581 1.79 1.635 0-.28-.034-.895 0-.686.038-1.493.474-1.964.945-.509.509-1.427.656-2.064 1.293M502.195 152.393c.349.647 1.037 1.072 1.231 1.753.168.586.212 1.815.212 1.815s.223-1.496.223-2.25c0-.843.31-1.185 1.12-1.455M498.829 145.675c-.791.768-1.544 1.102-2.573 1.331-.975.216 1.111.126 1.678.41.585.292 1.175.542 1.679.945M66.552 178c0 7.001-2.77 11.669-7.552 11.669 4.531 0 7.552 4.375 7.552 10.793 0-6.126 2.265-10.793 7.048-10.793-4.027.228-7.048-4.376-7.048-11.669ZM94.87 385.145c-1.359 3.721-.418 5.694 2.845 7.552 1.787 1.018 5.841.802 7.478-.297 1.933-1.297 3.555-2.749 2.764-5.431-.497-1.686-.884-2.435-2.479-3.267-3.003-1.568-7.092-4.031-10.324-1.825-2.678 1.828-3.215 7.467.447 8.232M672.152 288.001c.49-.835.878-1.69 1.157-2.597.08-.26.226-2.141.284-1.085.043.764.278 1.629.321 2.402.042.757.818 1.156 1.12 1.761M676.992 291.2c.814.84 1.338 1.281 2.562 1.281 1.169 0-.201-.025-.641 0-.491.027-1.068.339-1.405.676-.364.364-1.021.469-1.477.925M672.43 295.727c.249.463.741.767.88 1.254.12.419.152 1.299.152 1.299s.16-1.071.16-1.61c0-.603.221-.848.8-1.041M670.024 290.923c-.566.549-1.104.788-1.841.951-.697.155.795.091 1.201.294.418.209.84.387 1.201.676"/>
</svg>