<svg width="24" height="24" viewBox="0 0 24 24" fill="none" xmlns="http://www.w3.org/2000/svg">
    <path fill-rule="evenodd" clip-rule="evenodd"
          d="M4.29289 4.29289C4.68342 3.90237 5.31658 3.90237 5.70711 4.29289L12.0013 10.5871L18.2954 4.29289C18.686 3.90237 19.3191 3.90237 19.7096 4.29289C20.1002 4.68342 20.1002 5.31658 19.7096 5.70711L13.4155 12.0013L19.7096 18.2954C20.1002 18.686 20.1002 19.3191 19.7096 19.7096C19.3191 20.1002 18.686 20.1002 18.2954 19.7096L12.0013 13.4155L5.70711 19.7096C5.31658 20.1002 4.68342 20.1002 4.29289 19.7096C3.90237 19.3191 3.90237 18.686 4.29289 18.2954L10.5871 12.0013L4.29289 5.70711C3.90237 5.31658 3.90237 4.68342 4.29289 4.29289Z"
          fill="currentColor"/>
</svg>
