<svg width="744" height="485" viewBox="0 0 744 485" fill="none" xmlns="http://www.w3.org/2000/svg">
<g clip-path="url(#clip0_577_12743)">
<path d="M306 446.846C290.4 450.846 269.5 474.179 261 485.346L464.5 484.846C458.9 472.846 445.5 455.846 437.5 448.846L433 446.846C397.167 445.179 321.6 442.846 306 446.846Z" fill="#313131" stroke="black"/>
<path d="M301.5 434.846V450.346C314 457.346 348 459.846 369 459.846C393 459.846 423.833 453.179 437.5 448.846V441.846L368 430.346L301.5 434.846Z" fill="white"/>
<path opacity="0.5" fill-rule="evenodd" clip-rule="evenodd" d="M344.734 431.92C358.437 435.451 383.568 442.076 390 444.346C395.391 446.248 407.841 450.79 416.839 454.086C425.235 452.32 432.511 450.427 437.5 448.846V441.846L368 430.346L344.734 431.92Z" fill="black"/>
<path d="M314 41.8458C317.2 44.6458 319 46.6792 319.5 47.3458C289 47.8459 276 72.3457 276 72.3457C276 72.3457 284.533 70.2732 293 73.8457C300.47 76.9974 307.5 86.3151 307.5 93.3457C307.5 96.3457 309.5 118.846 271 125.846C240.2 131.446 215.5 121.512 207 115.846C207.333 121.679 208.7 136.246 211.5 147.846C214.3 159.446 224 172.346 228.5 177.346C227.333 177.346 221.4 177.546 207 178.346C192.6 179.146 182.333 177.346 179 176.346C181 180.679 186.9 192.146 194.5 203.346C202.1 214.546 215.333 222.346 221 224.846C219.667 227.346 215.5 234.346 209.5 240.346C203.5 246.346 195.333 250.679 192 252.346L192 252.346C196.167 252.679 204.5 253.346 215.5 253.846C226.5 254.346 448 252.846 472.5 249.346C492.1 246.546 511 230.512 518 222.846C518 222.846 504.15 224.078 495 223.346C482.5 222.346 476.5 217.846 476.5 217.846C476.5 217.846 494.849 208.984 505 200.346C515.758 191.19 529 172.346 529 172.346C529 172.346 512.537 173.892 502 173.346C491.962 172.825 476.5 169.846 476.5 169.846C476.5 169.846 488.819 158.183 495 149.346C501.557 139.97 508.5 123.346 508.5 123.346C494.5 126.846 483.5 127.646 473.5 126.846C461 125.846 459 126.346 441 118.346C423 110.346 402 71.8457 396 66.3457C390 60.8457 377 42.3458 349.5 33.8458C327.5 27.0458 310.333 34.0125 304.5 38.3458C306.333 38.3458 310.8 39.0458 314 41.8458Z" fill="black" stroke="black"/>
<path d="M299.5 186.846C296.3 186.846 294.167 183.179 293.5 181.346L295 168.346L306 167.346L307.5 184.346C306.167 185.179 302.7 186.846 299.5 186.846Z" fill="#FFC498"/>
<path d="M300 180.346C297.6 180.346 296.667 178.012 296.5 176.846L302 165.346L305 164.846V178.846C304.333 179.346 302.4 180.346 300 180.346Z" fill="#DF7D5E"/>
<path d="M414 191.346C408.4 193.746 404.667 189.679 403.5 187.346L406.5 165.346L423 182.346C422.333 184.346 419.6 188.946 414 191.346Z" fill="#FFC498"/>
<path d="M412 185.346C407.6 186.946 405.833 184.679 405.5 183.346L407 169.846H409.5L418 181.346C417.833 182.012 416.4 183.746 412 185.346Z" fill="#DF7D5E"/>
<path d="M301.5 434.846V450.346C314 457.346 348 459.846 369 459.846C393 459.846 423.833 453.179 437.5 448.846V441.846L368 430.346L301.5 434.846Z" stroke="black"/>
<path d="M259 238.846C271.4 230.846 302.5 222.179 316.5 218.846L396 211.346C400.833 212.512 416 216.746 438 224.346C465.5 233.846 476.5 244.346 480.5 248.346C484.5 252.346 490 263.346 492.5 269.346C495 275.346 499.5 292.846 500.5 302.846C501.5 312.846 500 337.346 498.5 347.846C497 358.346 488.5 392.346 486 397.846C483.5 403.346 476.5 424.346 473.5 425.846C471.1 427.046 460.167 423.679 455 421.846C455.333 423.679 456 428.046 456 430.846C456 434.346 453.5 437.346 448.5 441.346C444.5 444.546 439.5 446.012 437.5 446.346V441.346C437.333 441.679 435.6 442.446 430 442.846C423 443.346 403.5 440.846 396 439.346C390 438.146 363.5 434.512 351 432.846C348.667 433.512 342.3 435.246 335.5 436.846C327 438.846 317.5 440.846 311.5 440.846C305.5 440.846 300.5 441.846 288.5 435.346C278.9 430.146 276.833 421.179 277 417.346C275.333 418.846 270.6 422.846 265 426.846C259.4 430.846 251.333 431.846 248 431.846C240.5 431.846 237.5 426.846 229 410.346C220.5 393.846 215.5 361.346 215.5 346.846C215.5 332.346 215 307.346 225 281.346C235 255.346 243.5 248.846 259 238.846Z" fill="#FE5C83"/>
<path d="M259 238.846C271.4 230.846 302.5 222.179 316.5 218.846L396 211.346C400.833 212.512 416 216.746 438 224.346C465.5 233.846 476.5 244.346 480.5 248.346C484.5 252.346 490 263.346 492.5 269.346C495 275.346 499.5 292.846 500.5 302.846C501.5 312.846 500 337.346 498.5 347.846C497 358.346 488.5 392.346 486 397.846C483.5 403.346 476.5 424.346 473.5 425.846C471.1 427.046 460.167 423.679 455 421.846C455.333 423.679 456 428.046 456 430.846C456 434.346 453.5 437.346 448.5 441.346C444.5 444.546 439.5 446.012 437.5 446.346V441.846C436.127 442.532 434.6 442.446 429 442.846C422 443.346 403.5 440.846 396 439.346C390 438.146 363.5 434.512 351 432.846C348.667 433.512 342.3 435.246 335.5 436.846C327 438.846 317.5 440.846 311.5 440.846C305.5 440.846 300.5 441.846 288.5 435.346C278.9 430.146 276.833 421.179 277 417.346C275.333 418.846 270.6 422.846 265 426.846C259.4 430.846 251.333 431.846 248 431.846C240.5 431.846 237.5 426.846 229 410.346C220.5 393.846 215.5 361.346 215.5 346.846C215.5 332.346 215 307.346 225 281.346C235 255.346 243.5 248.846 259 238.846Z" fill="#FE5C83"/>
<path d="M351 432.846C348.667 433.512 342.3 435.246 335.5 436.846C327 438.846 317.5 440.846 311.5 440.846C305.5 440.846 300.5 441.846 288.5 435.346C278.9 430.146 276.833 421.179 277 417.346C275.333 418.846 270.6 422.846 265 426.846C259.4 430.846 251.333 431.846 248 431.846C240.5 431.846 237.5 426.846 229 410.346C220.5 393.846 215.5 361.346 215.5 346.846C215.5 332.346 215 307.346 225 281.346C235 255.346 243.5 248.846 259 238.846C271.4 230.846 302.5 222.179 316.5 218.846L396 211.346C400.833 212.512 416 216.746 438 224.346C465.5 233.846 476.5 244.346 480.5 248.346C484.5 252.346 490 263.346 492.5 269.346C495 275.346 499.5 292.846 500.5 302.846C501.5 312.846 500 337.346 498.5 347.846C497 358.346 488.5 392.346 486 397.846C483.5 403.346 476.5 424.346 473.5 425.846C471.1 427.046 460.167 423.679 455 421.846C455.333 423.679 456 428.046 456 430.846C456 434.346 453.5 437.346 448.5 441.346C444.5 444.546 439.5 446.012 437.5 446.346V441.846M351 432.846C363.5 434.512 390 438.146 396 439.346C403.5 440.846 422 443.346 429 442.846C434.6 442.446 436.127 442.532 437.5 441.846M351 432.846C358.5 430.846 377.5 425.846 386 426.346M437.5 441.846C439.5 440.846 440 440.346 441 439.346" stroke="black" stroke-linecap="round" stroke-linejoin="round"/>
<path d="M277 417.5C287 408.667 316.5 386.4 354.5 368" stroke="black"/>
<path d="M310.525 213.346C306.125 204.146 303.692 181.512 303.025 171.346V165.346L326.525 129.846L396.025 132.346L408.525 166.846L407.525 187.346C407.525 189.179 407.325 193.746 406.525 197.346C405.525 201.846 402.525 213.346 401.025 216.846C399.525 220.346 395.025 230.346 390.525 233.846C386.025 237.346 378.025 239.346 362.025 240.346C346.025 241.346 330.525 239.346 323.525 232.346C316.525 225.346 316.025 224.846 310.525 213.346Z" fill="#FFC498"/>
<path d="M386.025 169.846C380.409 169.846 375.007 174.137 371.37 177.556C369.98 178.861 369.761 181.022 371.103 182.376C375.389 186.7 381.786 188.922 386.025 189.346C391.025 189.846 395.025 187.346 396.525 186.346C398.025 185.346 404.025 180.346 403.025 176.846C402.025 173.346 393.025 169.846 386.025 169.846Z" fill="white"/>
<path d="M370 180.346C370.128 179.896 370.373 179.388 370.716 178.846M372.733 183.846C376.896 187.208 382.296 188.973 386.025 189.346C391.025 189.846 395.025 187.346 396.525 186.346C397.27 185.849 399.121 184.369 400.676 182.575M401.93 175.137C401.375 174.574 400.646 174.026 399.788 173.511M370.716 178.846C373.045 175.162 379.925 169.846 386.025 169.846C390.719 169.846 396.311 171.419 399.788 173.511M370.716 178.846C372.644 175.512 378.234 169.346 387 169.346C393.008 169.346 398.026 172.289 399.788 173.511" stroke="black" stroke-linecap="round"/>
<path fill-rule="evenodd" clip-rule="evenodd" d="M372.897 176.17C372.88 177.161 373.417 178.273 375.026 179.346C375.852 179.896 376.576 180.396 377.228 180.846C380.127 182.846 381.576 183.846 384.025 183.846C387.025 183.846 392.025 179.346 393.025 177.346C394.025 175.346 394.525 173.846 393.025 171.846C392.66 171.358 392.205 170.901 391.683 170.487C389.779 170.08 387.835 169.846 386.025 169.846C381.15 169.846 376.435 173.08 372.897 176.17Z" fill="#04E1FE"/>
<path d="M375.026 179.346L375.303 178.93L375.026 179.346ZM372.897 176.17L372.568 175.793L372.401 175.939L372.397 176.161L372.897 176.17ZM377.228 180.846L376.944 181.258H376.944L377.228 180.846ZM393.025 171.846L392.625 172.146V172.146L393.025 171.846ZM391.683 170.487L391.994 170.095L391.902 170.023L391.788 169.998L391.683 170.487ZM375.303 178.93C373.787 177.919 373.384 176.948 373.397 176.178L372.397 176.161C372.376 177.375 373.048 178.628 374.748 179.762L375.303 178.93ZM377.512 180.434C376.86 179.985 376.133 179.483 375.303 178.93L374.748 179.762C375.57 180.31 376.292 180.808 376.944 181.258L377.512 180.434ZM384.025 183.346C381.756 183.346 380.433 182.45 377.512 180.434L376.944 181.258C379.82 183.242 381.396 184.346 384.025 184.346V183.346ZM392.578 177.122C392.36 177.558 391.899 178.173 391.254 178.864C390.616 179.548 389.822 180.28 388.966 180.953C388.11 181.626 387.201 182.23 386.333 182.664C385.456 183.102 384.663 183.346 384.025 183.346V184.346C384.888 184.346 385.844 184.026 386.78 183.559C387.725 183.086 388.691 182.441 389.584 181.739C390.479 181.036 391.31 180.269 391.985 179.546C392.652 178.831 393.191 178.133 393.473 177.569L392.578 177.122ZM392.625 172.146C393.317 173.067 393.517 173.826 393.464 174.56C393.409 175.326 393.078 176.122 392.578 177.122L393.473 177.569C393.973 176.569 394.391 175.615 394.462 174.631C394.534 173.615 394.234 172.624 393.425 171.546L392.625 172.146ZM391.373 170.879C391.865 171.269 392.289 171.697 392.625 172.146L393.425 171.546C393.031 171.02 392.545 170.532 391.994 170.095L391.373 170.879ZM391.788 169.998C389.855 169.585 387.876 169.346 386.025 169.346V170.346C387.794 170.346 389.702 170.575 391.579 170.976L391.788 169.998ZM386.025 169.346C380.951 169.346 376.114 172.697 372.568 175.793L373.226 176.546C376.757 173.463 381.348 170.346 386.025 170.346V169.346Z" fill="black"/>
<path d="M357.524 199.846C358.024 199.846 360.024 199.846 359.024 198.346C358.284 197.234 356.752 197.366 356.024 197.845C354.686 198.732 357.024 199.846 357.524 199.846Z" fill="#DF7D5E"/>
<path d="M332.5 211.846C336.833 214.512 346 218.346 357.5 218.846C368 219.302 380 213.346 384.5 211.346M332.5 211.846L333.5 210.846M332.5 211.846L331 212.846M384.5 211.346L383.5 209.846M384.5 211.346L386 212.846" stroke="black"/>
<path opacity="0.6" d="M274.5 344.846C275.3 346.046 268.167 349.179 264.5 350.346C272 348.846 279 346.846 285.5 345.846L284.5 296.846L274.5 341.346L269.5 342.346C270.833 343.012 273.7 343.646 274.5 344.846Z" fill="black"/>
<path opacity="0.6" d="M426 341.346L430 294.346C429.2 323.546 432 336.846 433.5 339.846L442.5 340.346C442.167 340.512 441.2 340.546 440 341.346C438.8 342.146 439.5 344.012 440 344.846L426 341.346Z" fill="black"/>
<path opacity="0.6" d="M462.5 345.346C460 343.846 453.5 342.179 450.5 341.346C454 341.012 462.7 339.246 465.5 340.846C469 342.846 470.5 346.346 470 347.346C469.5 348.346 465 346.846 462.5 345.346Z" fill="black"/>
<path opacity="0.6" fill-rule="evenodd" clip-rule="evenodd" d="M457.079 422.559C456.321 422.306 455.62 422.065 455.002 421.846C455.335 423.679 456.002 428.046 456.002 430.846C456.002 434.346 453.502 437.346 448.502 441.346C444.502 444.546 439.502 446.012 437.502 446.346V441.346C437.335 441.679 435.602 442.446 430.002 442.846C423.002 443.346 403.502 440.846 396.002 439.346C390.169 438.179 364.961 434.713 352.077 432.989C366.621 429.312 387.598 424.702 386.502 426.346C385.502 427.846 381.002 430.512 377.502 431.346C387.169 434.512 408.902 440.446 418.502 438.846C430.502 436.846 437.002 431.846 439.002 427.846C440.602 424.646 440.669 417.846 440.502 414.846L455.502 421.346L457.079 422.559Z" fill="black"/>
<path d="M352.117 281.655C350.88 280.859 350.915 253.118 351.087 240.343L365 239.846V258.262C365 263.239 363.453 282.153 362.423 282.65C361.392 283.148 353.663 282.65 352.117 281.655Z" fill="white"/>
<path d="M347.5 161.505V164.468C347.5 165.148 346.838 165.629 346.195 165.41C339.062 162.978 328.969 158.846 320.5 158.846C316.768 158.846 310.135 159.805 305.969 160.503C305.156 160.639 304.526 159.794 304.894 159.057L306.281 156.283C306.419 156.007 306.676 155.811 306.98 155.762C308.396 155.535 312.197 155.041 319.5 154.346C327.621 153.572 340.759 158.033 346.894 160.59C347.263 160.743 347.5 161.105 347.5 161.505Z" fill="#191818"/>
<path d="M319.526 171.346C329.526 167.346 340.693 173.679 345.026 177.346C346.025 179.346 338.527 190.346 328.527 189.346C320.527 188.546 314.86 182.679 313.026 179.846C311.192 177.012 309.526 175.346 319.526 171.346Z" fill="white"/>
<path fill-rule="evenodd" clip-rule="evenodd" d="M318.952 171.578C318.14 173.368 317.583 175.239 318.025 176.346C319.025 178.846 326.025 184.346 329.525 184.346C333.025 184.346 340.525 179.346 341.025 177.846C341.259 177.144 341.048 175.723 340.733 174.364C335.296 171.198 327.078 168.325 319.526 171.346C319.33 171.424 319.139 171.501 318.952 171.578Z" fill="#04E1FE"/>
<path d="M318.025 176.346L318.49 176.16L318.025 176.346ZM318.952 171.578L318.762 171.115L318.578 171.191L318.496 171.371L318.952 171.578ZM341.025 177.846L341.5 178.004V178.004L341.025 177.846ZM340.733 174.364L341.22 174.251L341.171 174.041L340.985 173.932L340.733 174.364ZM319.526 171.346L319.712 171.81V171.81L319.526 171.346ZM318.49 176.16C318.325 175.749 318.327 175.127 318.506 174.327C318.681 173.544 319.009 172.663 319.407 171.785L318.496 171.371C318.083 172.283 317.726 173.233 317.53 174.109C317.338 174.969 317.283 175.836 317.561 176.531L318.49 176.16ZM329.525 183.846C328.762 183.846 327.749 183.54 326.608 182.996C325.478 182.458 324.27 181.71 323.133 180.879C321.995 180.049 320.938 179.145 320.109 178.3C319.266 177.442 318.701 176.688 318.49 176.16L317.561 176.531C317.85 177.253 318.535 178.125 319.395 179.001C320.269 179.89 321.368 180.83 322.543 181.687C323.718 182.544 324.979 183.328 326.177 183.899C327.364 184.464 328.539 184.846 329.525 184.846V183.846ZM340.551 177.688C340.525 177.767 340.417 177.943 340.165 178.216C339.925 178.474 339.596 178.776 339.193 179.108C338.386 179.769 337.313 180.521 336.141 181.23C334.97 181.939 333.713 182.598 332.539 183.078C331.354 183.563 330.302 183.846 329.525 183.846V184.846C330.499 184.846 331.697 184.503 332.918 184.004C334.151 183.499 335.456 182.815 336.659 182.086C337.863 181.357 338.977 180.578 339.827 179.881C340.251 179.532 340.618 179.198 340.898 178.896C341.165 178.608 341.401 178.299 341.5 178.004L340.551 177.688ZM340.246 174.477C340.401 175.146 340.528 175.818 340.588 176.402C340.65 177.006 340.632 177.445 340.551 177.688L341.5 178.004C341.653 177.545 341.646 176.922 341.583 176.3C341.517 175.659 341.38 174.942 341.22 174.251L340.246 174.477ZM319.712 171.81C327.047 168.876 335.088 171.655 340.481 174.796L340.985 173.932C335.504 170.74 327.11 167.774 319.34 170.881L319.712 171.81ZM319.141 172.041C319.327 171.965 319.517 171.888 319.712 171.81L319.34 170.881C319.143 170.96 318.951 171.038 318.762 171.115L319.141 172.041Z" fill="black"/>
<path d="M358.525 192.346C358.125 195.546 360.025 197.346 361.025 197.846C363.525 198.346 365.025 195.346 365.525 194.346C366.025 193.346 366.025 192.346 365.525 191.346C365.025 190.346 362.025 185.846 361.025 185.846C360.025 185.846 359.025 188.346 358.525 192.346Z" fill="#DF7D5E"/>
<path d="M387.5 173.346C387.5 171.746 388.833 171.346 389.5 171.346C390.333 171.512 392.1 172.046 392.5 172.846C393 173.846 392 175.846 390.5 175.346C389 174.846 387.5 175.346 387.5 173.346Z" fill="white"/>
<path opacity="0.6" d="M473.5 356.846C471.1 354.446 465.667 355.012 463.5 355.346C470 359.346 476.3 366.646 477.5 365.846C479 364.846 476.5 359.846 473.5 356.846Z" fill="black"/>
<path opacity="0.6" d="M235.499 367.846C237.499 363.846 242.833 363.012 245 362.846C243.833 364.012 240.699 366.246 239.499 367.846C237.999 369.846 232.999 372.846 235.499 367.846Z" fill="black"/>
<path d="M335.501 176.346C333.901 175.146 335 173.596 336.001 173.346C338.001 172.846 339 175.138 339 175.846C339 176.846 337.501 177.846 335.501 176.346Z" fill="white"/>
<path d="M328.525 272.346C332.125 276.746 332.691 281.512 332.525 283.346L340.5 293.846L316.5 316.346L308.5 309.346C308.167 309.846 306.7 310.546 303.5 309.346C299.5 307.846 291 297.846 289 295.846C287 293.846 273.5 280.346 272 279.346C270.5 278.346 267.5 277.846 265.5 277.346C263.5 276.846 255 275.346 248 275.846C242.4 276.246 235.158 275.679 233.5 275.346C228.5 273.346 227.525 270.346 227.525 269.346C227.525 268.346 234.525 268.346 237.525 268.346C240.525 268.346 245.5 267.846 247 267.346C248.5 266.846 249.525 266.346 259.025 265.846C268.525 265.346 270.025 263.846 269.525 262.846C269.025 261.846 252.525 255.846 245.525 255.846C238.525 255.846 230.025 252.846 226.525 250.846C223.025 248.846 224.025 245.346 224.525 244.846C225.025 244.346 240.025 247.846 244.025 247.346C248.025 246.846 254.525 248.346 257.525 249.346C260.525 250.346 273.025 251.846 274.025 250.346C275.025 248.846 275.025 247.346 274.525 245.846C274.025 244.346 259.525 229.846 256.025 226.346C252.525 222.846 245.321 217.016 242 213.346C237.475 208.346 237.525 203.346 237.525 201.846C237.525 200.346 238.025 197.846 239.525 198.346C241.025 198.846 242.525 200.346 248.025 206.346C253.525 212.346 260.525 215.346 264.025 219.346C267.525 223.346 274.525 230.346 279.025 234.846C283.525 239.346 284.525 238.846 285.025 238.346C285.525 237.846 284.525 236.346 283.025 233.346C281.525 230.346 278.025 221.346 277.025 219.346C276.025 217.346 272.025 211.346 269.525 206.346C267.025 201.346 264.525 195.346 264.525 189.346C264.525 183.346 267.025 182.346 268.525 182.346C270.025 182.346 272.025 187.346 273.025 189.346C274.025 191.346 282.525 207.346 283.025 208.346C283.525 209.346 289.525 216.846 290.525 219.346C291.525 221.846 299.025 233.846 300.025 234.846C301.025 235.846 305.525 241.346 306.525 244.346C307.525 247.346 310.025 251.346 312.025 253.846C314.025 256.346 324.025 266.846 328.525 272.346Z" fill="#FFC498"/>
<path d="M274.025 250.346C275.025 248.846 275.025 247.346 274.525 245.846C274.025 244.346 259.525 229.846 256.025 226.346C252.525 222.846 245.321 217.016 242 213.346C237.475 208.346 237.525 203.346 237.525 201.846C237.525 200.346 238.025 197.846 239.525 198.346C241.025 198.846 242.525 200.346 248.025 206.346C253.525 212.346 260.525 215.346 264.025 219.346C267.525 223.346 274.525 230.346 279.025 234.846C283.525 239.346 284.525 238.846 285.025 238.346C285.525 237.846 284.525 236.346 283.025 233.346C281.525 230.346 278.025 221.346 277.025 219.346C276.025 217.346 272.025 211.346 269.525 206.346C267.025 201.346 264.525 195.346 264.525 189.346C264.525 183.346 267.025 182.346 268.525 182.346C270.025 182.346 272.025 187.346 273.025 189.346C274.025 191.346 282.525 207.346 283.025 208.346C283.525 209.346 289.525 216.846 290.525 219.346C291.525 221.846 299.025 233.846 300.025 234.846C301.025 235.846 305.525 241.346 306.525 244.346C307.525 247.346 310.025 251.346 312.025 253.846C314.025 256.346 324.025 266.846 328.525 272.346C332.125 276.746 332.691 281.512 332.525 283.346L340.5 293.846L316.5 316.346L308.5 309.346C308.167 309.846 306.7 310.546 303.5 309.346C299.5 307.846 291 297.846 289 295.846C287 293.846 273.5 280.346 272 279.346C270.5 278.346 267.5 277.846 265.5 277.346C263.5 276.846 255 275.346 248 275.846C242.4 276.246 235.158 275.679 233.5 275.346C228.5 273.346 227.525 270.346 227.525 269.346C227.525 268.346 234.525 268.346 237.525 268.346C240.525 268.346 245.5 267.846 247 267.346C248.5 266.846 249.525 266.346 259.025 265.846C268.525 265.346 270.025 263.846 269.525 262.846C269.025 261.846 252.525 255.846 245.525 255.846C238.525 255.846 230.025 252.846 226.525 250.846C223.025 248.846 224.025 245.346 224.525 244.846C225.025 244.346 240.025 247.846 244.025 247.346C248.025 246.846 254.525 248.346 257.525 249.346C260.525 250.346 273.025 251.846 274.025 250.346ZM274.025 250.346C274.85 249.679 276.6 248.146 277 247.346" stroke="#181717" stroke-linecap="round" stroke-linejoin="round"/>
<path d="M290 245.846C291.833 247.512 295.6 251.846 296 255.846" stroke="black" stroke-linecap="round"/>
<path d="M387 274.846C385 276.446 384.833 278.512 385 279.346L376 287.846L396 312.346L407 306.346C409.167 306.179 414.2 305.446 417 303.846C420.5 301.846 428 293.346 433.5 286.846C437.9 281.646 440.333 274.346 441 271.346C442.833 270.179 447.3 267.046 450.5 263.846C454.5 259.846 456.5 259.846 465 254.846C473.5 249.846 472 243.346 472 242.846C472 242.346 471.5 241.346 468.5 243.346C466.1 244.946 461.5 246.679 459.5 247.346C464.5 243.679 474.9 235.846 476.5 233.846C478.5 231.346 479 226.846 478 226.346C477 225.846 475 226.846 472 228.846C469 230.846 462 234.846 454 238.846C446.503 242.594 443.5 243.846 443 243.846C442.5 243.846 441.5 243.346 441.5 242.346C441.5 241.346 447.5 232.346 450.5 228.846C453.5 225.346 461.5 216.346 463 213.346C464.5 210.346 466 205.846 466 202.846C466 199.846 465.5 198.346 464.5 198.346C463.7 198.346 460 203.346 458.5 205.846C456.5 208.512 451.7 214.746 448.5 218.346C444.5 222.846 440.261 227.584 437.5 230.346C436 231.846 433 234.346 432 233.846C431.553 233.622 437.5 215.846 440.5 209.846C443.5 203.846 444 199.846 443.5 195.846C443 191.846 442 190.346 441 189.846C440 189.346 439 191.846 438 194.346C437 196.846 433 204.846 431 209.846C429 214.846 423 226.346 420.5 229.846C418 233.346 411.5 240.346 410.5 242.346C409.5 244.346 407.5 249.846 404 254.846C400.5 259.846 389.5 272.846 387 274.846Z" fill="#FFC498"/>
<path d="M432 233.846C431.553 233.622 437.5 215.846 440.5 209.846C443.5 203.846 444 199.846 443.5 195.846C443 191.846 442 190.346 441 189.846C440 189.346 439 191.846 438 194.346C437 196.846 433 204.846 431 209.846C429 214.846 423 226.346 420.5 229.846C418 233.346 411.5 240.346 410.5 242.346C409.5 244.346 407.5 249.846 404 254.846C400.5 259.846 389.5 272.846 387 274.846C385 276.446 384.833 278.512 385 279.346L376 287.846L396 312.346L407 306.346C409.167 306.179 414.2 305.446 417 303.846C420.5 301.846 428 293.346 433.5 286.846C437.9 281.646 440.333 274.346 441 271.346C442.833 270.179 447.3 267.046 450.5 263.846C454.5 259.846 456.5 259.846 465 254.846C473.5 249.846 472 243.346 472 242.846C472 242.346 471.5 241.346 468.5 243.346C466.1 244.946 461.5 246.679 459.5 247.346M432 233.846C433 234.346 436 231.846 437.5 230.346C440.261 227.584 444.5 222.846 448.5 218.346C451.7 214.746 456.5 208.512 458.5 205.846C460 203.346 463.7 198.346 464.5 198.346C465.5 198.346 466 199.846 466 202.846C466 205.846 464.5 210.346 463 213.346C461.5 216.346 453.5 225.346 450.5 228.846C447.5 232.346 441.5 241.346 441.5 242.346C441.5 243.346 442.5 243.846 443 243.846M432 233.846C428.833 237.012 422.3 242.946 421.5 245.346M443 243.846C443.5 243.846 446.503 242.594 454 238.846C462 234.846 469 230.846 472 228.846C475 226.846 477 225.846 478 226.346C479 226.846 478.5 231.346 476.5 233.846C474.9 235.846 464.5 243.679 459.5 247.346M443 243.846L433 250.346M459.5 247.346C453.667 250.846 441 258.346 437 260.346M430.5 252.346L429 253.846" stroke="#191818" stroke-linecap="round"/>
<path d="M367.998 158.846C364.207 161.215 365 163.346 365.5 164.346C366.499 164.346 369.5 162.846 375.5 159.346C381.5 155.846 386.5 154.346 392 154.346C396.4 154.346 403.332 155.346 405.999 155.846L405.499 153.346C399.999 152.679 393.5 150.846 384.998 152.346C380.567 153.128 372 156.346 367.998 158.846Z" fill="#191818"/>
<path d="M383.501 281.846C381.901 281.446 377.001 286.512 374.001 289.346C373.501 289.846 374 290.846 376 293.346C376.572 294.06 378.552 295.644 379.5 296.846C381.869 299.849 384.93 303.204 388.501 307.846C392.501 313.046 395.501 318.012 396.501 319.846C396.501 318.846 407.001 312.846 406.501 309.346C406.001 305.846 407.001 302.346 399.001 292.846C391.001 283.346 385.501 282.346 383.501 281.846Z" fill="#FE5C83" stroke="black"/>
<path d="M314 300.846C307 308.345 309.001 310.346 309.001 313.846C309.001 318.346 314.001 317.346 315.501 321.846C316.312 324.277 317.776 325.934 319.001 326.906C319.589 327.374 320.122 327.683 320.501 327.846C322.501 322.346 325.921 316.551 330.501 311.346C330.951 310.834 331.411 310.334 331.878 309.846C332.369 309.332 332.868 308.832 333.371 308.346C335.459 306.324 337.612 304.54 339.556 303.039C339.944 302.74 340.324 302.452 340.693 302.175C341.08 301.886 341.455 301.609 341.815 301.346C344.491 299.393 346.393 298.169 346.501 297.846C346.664 297.357 346.562 296.869 346.246 296.346C345.882 295.743 345.234 295.094 344.383 294.346C343.705 293.751 342.898 293.093 342.001 292.346C339.001 289.846 340.001 288.846 337.501 287.346C335.001 285.846 334.501 286.846 332.001 287.346C329.501 287.846 320.554 293.824 314 300.846Z" fill="#FE5C83"/>
<path d="M319.001 326.906C319.589 327.374 320.122 327.683 320.501 327.845C322.501 322.345 325.921 316.551 330.501 311.345C330.951 310.834 331.411 310.334 331.878 309.845C332.369 309.332 335 306.345 337 304.845M319.001 326.906C317.776 325.933 316.312 324.277 315.501 321.845C314.001 317.345 309.001 318.346 309.001 313.846C309.001 310.346 307 308.345 314 300.845C320.554 293.824 329.501 287.846 332.001 287.346C334.501 286.846 335.001 285.846 337.501 287.346C340.001 288.846 339.001 289.845 342.001 292.345C342.348 292.635 342.682 292.911 343 293.175M319.001 326.906C319.001 333.886 319.301 349.045 320.501 353.845C322.001 359.845 322.501 358.845 326.501 359.345C330.501 359.845 365.501 370.345 378.001 378.345C390.501 386.345 404.001 392.845 410.501 396.845C417.001 400.845 446.501 418.845 455.001 421.845M346.246 296.345C346.562 296.869 346.664 297.357 346.501 297.845C346.393 298.168 344.491 299.393 341.815 301.345C341.455 301.609 341.08 301.885 340.693 302.175C340.324 302.451 339.944 302.74 339.556 303.039M346.246 296.345C350.164 294.012 360.701 289.745 373.501 291.345C374.501 291.845 377 293.645 379 296.845M346.246 296.345C345.882 295.742 345.234 295.093 344.383 294.345C343.967 293.981 343.503 293.593 343 293.175M343 293.175C346 289.232 352.908 283.005 354.5 282.845C359.5 282.346 368 286.345 374 288.845" stroke="black" stroke-linecap="round" stroke-linejoin="round"/>
<path d="M379 296.846C382.167 302.346 389.8 314.646 395 319.846C401.5 326.346 410 334.846 418 338.846C420.373 340.032 423.714 341.043 427.5 342.021M476.5 364.846C472.667 361.846 463 354.746 455 350.346C447.966 346.477 436.479 344.34 427.5 342.021M427.5 342.021C429.398 341.505 431.779 341.1 434.5 340.879M466.5 346.846C455.516 341.353 443.251 340.167 434.5 340.879M434.5 340.879C433 338.034 430 328.546 430 313.346C430 298.146 430 292.012 430 290.846" stroke="black" stroke-linecap="round" stroke-linejoin="round"/>
<path d="M316 324.346C310.333 330.346 297.1 342.546 287.5 345.346C275.5 348.846 270 347.346 257 354.346C246.6 359.946 240.5 367.346 237 369.846" stroke="black" stroke-linecap="round"/>
<path d="M244.5 348.346C247.5 346.179 253.7 342.746 260.5 342.346C267.3 341.946 281.5 344.333 285.5 345.5" stroke="black" stroke-linecap="round"/>
<path d="M284.5 296.846L285.5 345.5" stroke="black" stroke-linecap="round"/>
<path d="M345.026 177.345C340.693 173.679 329.526 167.345 319.526 171.345C319.347 171.417 319.172 171.488 319 171.558M345.026 177.345C345.754 178.802 341.973 185.035 336 187.926M345.026 177.345C331 163.846 318.5 170.846 315.106 173.345M313.5 179.846C312.005 177.536 310.147 176.001 315.106 173.345M315.106 173.345C314.07 172.845 311.8 171.545 311 170.345M315.106 173.345C316.12 172.802 317.401 172.212 319 171.558M319 171.558C318.237 171.375 316.39 170.444 315.106 168.178M315.519 182.846C318.308 185.631 322.825 188.775 328.527 189.345C329.904 189.483 331.234 189.393 332.5 189.131" stroke="black" stroke-linecap="round"/>
<path d="M395.5 169.346L398 166.846" stroke="black" stroke-linecap="round"/>
<path d="M400 171.346L402.5 169.346" stroke="black" stroke-linecap="round"/>
<path d="M407.5 185.846L408.525 166.846L396.025 132.346L326.525 129.846L303 164.846L303.5 171.346C304.167 181.512 306.125 204.146 310.525 213.346C316.025 224.846 316.525 225.346 323.525 232.346C330.525 239.346 346.025 241.346 362.025 240.346C378.025 239.346 386.025 237.346 390.525 233.846C395.025 230.346 399.525 220.346 401.025 216.846C402.525 213.346 405.525 201.846 406.525 197.346C406.914 195.599 407.16 193.625 407.312 191.846L407.5 188.846" stroke="black" stroke-linecap="round"/>
<path d="M307.5 162.346C298.3 174.346 289.667 187.012 286.5 191.846L281 154.846L337.5 110.346L423.5 119.346C428.333 148.512 435.1 203.846 423.5 191.846C411.9 179.846 398 149.846 392.5 136.346C392.5 136.346 373.031 144.944 362 151.846C349.642 159.577 333.5 174.346 333.5 174.346L327 137.346C324.333 140.679 316.7 150.346 307.5 162.346Z" fill="black"/>
<path d="M286.5 191.846C289.667 187.012 298.3 174.346 307.5 162.346C316.7 150.346 324.333 140.679 327 137.346L333.5 174.346C333.5 174.346 349.642 159.577 362 151.846C373.031 144.944 392.5 136.346 392.5 136.346C398 149.846 411.9 179.846 423.5 191.846" stroke="black"/>
<path opacity="0.6" d="M374 290.346C374 289.846 374.5 288.446 376.5 286.846C376.682 286.7 376.816 286.563 376.913 286.439C376.92 285.52 377.42 285.793 376.913 286.439C376.904 287.766 377.925 291.579 384.5 300.345C392 310.345 397 315.845 400 316.845L396.5 319.345C393.5 314.679 387 304.845 385 302.845C383 300.845 376.833 293.679 374 290.346Z" fill="black"/>
<path opacity="0.6" d="M316.5 323.846C316.9 325.046 319.333 327.012 320.5 327.846C320.333 327.346 321.079 323.557 326 316.846C331.499 309.346 332.999 308.346 337 304.846C336.333 304.846 335.1 304.846 329.5 308.846C322.5 313.846 316 322.346 316.5 323.846Z" fill="black"/>
<path opacity="0.6" d="M344.5 295.346C343.7 296.146 338 302.845 339.5 302.845C341.834 301.179 346.1 298.479 346.5 298.079C347 297.579 345.5 294.346 344.5 295.346Z" fill="black"/>
<path d="M564.071 160C564.071 171.027 559.278 178.378 551 178.378C558.842 178.378 564.071 185.27 564.071 195.378C564.071 185.729 567.992 178.378 576.27 178.378C569.299 178.739 564.071 171.486 564.071 160Z" stroke="white" stroke-width="1.5"/>
<path d="M501.805 141.593C502.488 140.425 503.031 139.231 503.421 137.963C503.533 137.6 503.737 134.97 503.819 136.446C503.878 137.514 504.207 138.723 504.267 139.803C504.325 140.862 505.411 141.419 505.833 142.265" stroke="white" stroke-width="1.5"/>
<path d="M508.569 146.064C509.708 147.238 510.44 147.854 512.15 147.854C513.785 147.854 511.87 147.82 511.255 147.854C510.569 147.892 509.762 148.328 509.291 148.799C508.782 149.308 507.864 149.455 507.227 150.092" stroke="white" stroke-width="1.5"/>
<path d="M502.195 152.393C502.544 153.04 503.232 153.465 503.426 154.146C503.594 154.732 503.638 155.961 503.638 155.961C503.638 155.961 503.861 154.465 503.861 153.711C503.861 152.868 504.171 152.526 504.981 152.256" stroke="white" stroke-width="1.5"/>
<path d="M498.829 145.675C498.038 146.443 497.285 146.777 496.256 147.006C495.281 147.222 497.367 147.132 497.934 147.416C498.519 147.708 499.109 147.958 499.613 148.361" stroke="white" stroke-width="1.5"/>
<path d="M66.5519 178C66.5519 185.001 63.7827 189.669 59 189.669C63.5311 189.669 66.5519 194.044 66.5519 200.462C66.5519 194.336 68.8175 189.669 73.6004 189.669C69.5728 189.897 66.5519 185.293 66.5519 178Z" stroke="white" stroke-width="1.5"/>
<path d="M94.8695 385.145C93.5113 388.866 94.4517 390.839 97.7147 392.697C99.5019 393.715 103.556 393.499 105.193 392.4C107.126 391.103 108.748 389.651 107.957 386.969C107.46 385.283 107.073 384.534 105.478 383.702C102.475 382.134 98.3863 379.671 95.154 381.877C92.4762 383.705 91.9391 389.344 95.6011 390.109" stroke="white" stroke-width="1.5"/>
<path d="M672.152 288.001C672.642 287.166 673.03 286.311 673.309 285.404C673.389 285.144 673.535 283.263 673.593 284.319C673.636 285.083 673.871 285.948 673.914 286.721C673.956 287.478 674.732 287.877 675.034 288.482" stroke="white" stroke-width="1.5"/>
<path d="M676.992 291.2C677.806 292.04 678.33 292.481 679.554 292.481C680.723 292.481 679.353 292.456 678.913 292.481C678.422 292.508 677.845 292.82 677.508 293.157C677.144 293.521 676.487 293.626 676.031 294.082" stroke="white" stroke-width="1.5"/>
<path d="M672.43 295.727C672.679 296.19 673.171 296.494 673.31 296.981C673.43 297.4 673.462 298.28 673.462 298.28C673.462 298.28 673.622 297.209 673.622 296.67C673.622 296.067 673.843 295.822 674.422 295.629" stroke="white" stroke-width="1.5"/>
<path d="M670.024 290.923C669.458 291.472 668.92 291.711 668.183 291.874C667.486 292.029 668.978 291.965 669.384 292.168C669.802 292.377 670.224 292.555 670.585 292.844" stroke="white" stroke-width="1.5"/>
</g>
<defs>
<clipPath id="clip0_577_12743">
<rect width="744" height="485" fill="white"/>
</clipPath>
</defs>
</svg>
