<svg width="24" height="24" viewBox="0 0 24 24" fill="none" xmlns="http://www.w3.org/2000/svg">
    <path fill-rule="evenodd" clip-rule="evenodd"
          d="M18.4941 3.801C20.5891 5.022 22.0631 7.501 21.9981 10.393C21.9171 14.003 19.1081 17.187 14.3191 20.031C13.6091 20.453 12.8611 21 12.0001 21C11.1551 21 10.3751 20.443 9.68007 20.03C4.89307 17.187 2.08307 14.002 2.00207 10.393C1.93707 7.501 3.41107 5.023 5.50607 3.801C7.46607 2.66 9.92807 2.653 12.0001 4.338C14.0721 2.653 16.5341 2.659 18.4941 3.801ZM17.4871 5.53C16.0931 4.718 14.3511 4.747 12.8431 6.273C12.7326 6.38421 12.6013 6.47247 12.4566 6.53269C12.3119 6.59292 12.1568 6.62393 12.0001 6.62393C11.8434 6.62393 11.6882 6.59292 11.5435 6.53269C11.3988 6.47247 11.2675 6.38421 11.1571 6.273C9.64907 4.747 7.90707 4.718 6.51307 5.53C5.06907 6.372 3.95307 8.158 4.00207 10.35C4.05807 12.861 6.04207 15.544 10.7021 18.312C11.1101 18.555 11.5361 18.866 12.0001 18.995C12.4641 18.866 12.8901 18.555 13.2981 18.312C17.9581 15.544 19.9421 12.862 19.9981 10.349C20.0481 8.159 18.9311 6.372 17.4871 5.53Z"
          fill="currentColor"/>
</svg>
