<svg width="60" height="32" viewBox="0 0 60 32" fill="none" xmlns="http://www.w3.org/2000/svg">
<path d="M52.0994 31.9398C50.214 31.8997 48.5376 31.3434 47.1696 30.0268C46.8667 29.7347 46.603 29.3813 46.3984 29.0145C46.081 28.4471 46.1067 27.8718 46.5694 27.3657C46.9952 26.8997 47.4143 26.4259 47.8569 25.9755C48.4683 25.3534 49.0181 25.3646 49.5289 26.068C50.4118 27.2832 51.6077 27.5496 52.9868 27.2743C54.2464 27.0223 55.3193 25.8061 55.402 24.5987C55.4791 23.4616 54.6666 22.3457 53.3702 21.9098C52.5968 21.65 51.7943 21.4739 51.0019 21.2732C48.4571 20.6288 46.8634 19.0257 46.3828 16.4661C45.8765 13.7671 46.8466 11.5631 49.0327 9.9277C51.6177 7.99349 55.5652 8.33128 57.7826 10.6289C57.9491 10.8017 58.1033 10.9923 58.2319 11.1941C58.7124 11.9466 58.6934 12.3279 58.1123 12.9934C57.6853 13.484 57.2439 13.9633 56.7823 14.4204C56.0871 15.1071 55.6468 15.0715 55.0366 14.2989C54.4878 13.6033 53.8184 13.1607 52.8918 13.2175C52.0547 13.2688 51.3786 13.8117 51.1416 14.6255C50.9461 15.2944 51.2132 16.067 51.953 16.4683C52.5431 16.7883 53.2227 16.9878 53.8865 17.125C56.3252 17.6266 58.2386 18.8217 59.3383 21.116C60.7499 24.0614 59.8379 27.8283 57.2226 30.0569C55.7396 31.3211 54.0128 31.8807 52.1017 31.9398H52.0994Z" fill="currentColor"/>
<path d="M0 20.4226C0 17.0792 0 13.7359 0 10.3914C0 9.1562 0.48505 8.66122 1.71556 8.65899C3.98769 8.65564 6.25983 8.65453 8.53085 8.65899C9.6563 8.66122 10.0732 9.06255 10.1179 10.1952C10.1414 10.7883 10.1447 11.3836 10.1324 11.9778C10.1156 12.7927 9.69542 13.213 8.88067 13.2231C7.80104 13.2364 6.72029 13.2253 5.64067 13.2297C4.86503 13.2342 4.54763 13.5307 4.53757 14.3022C4.52527 15.2119 4.5398 16.1227 4.55098 17.0324C4.5588 17.6745 4.7678 17.9142 5.41379 17.9376C6.13913 17.9633 6.86559 17.9376 7.59204 17.9376C9.23272 17.9376 9.70436 18.4137 9.70995 20.0703C9.70995 20.3858 9.71777 20.7024 9.7066 21.0179C9.67754 21.8361 9.14555 22.3668 8.32409 22.3791C7.42999 22.3913 6.53589 22.3768 5.6429 22.3857C4.84715 22.3935 4.55545 22.6711 4.55433 23.4615C4.54874 25.7837 4.5588 28.1048 4.55992 30.4269C4.55992 31.6387 4.21457 31.9843 3.01312 31.9921C2.52919 31.9955 2.04526 31.9999 1.56021 31.9999C0.534226 31.9999 0.0737634 31.5774 0.0704105 30.5629C0.0592343 27.1828 0.06594 23.8027 0.06594 20.4226H0Z" fill="currentColor"/>
<path d="M30.1052 14.0001C30.1052 17.3055 30.1052 26.9164 30.1041 30.2219C30.1041 30.4816 30.1063 30.7447 30.065 31C29.9599 31.6377 29.5631 31.971 28.9216 31.9799C28.27 31.9889 27.6185 31.9922 26.9669 31.9877C25.9934 31.9799 25.5687 31.5697 25.5676 30.5942C25.5587 26.5274 25.562 16.155 25.5587 12.0882C25.5564 9.35799 25.5475 13.193 25.5453 10.4628C25.5453 9.37699 25.98 8.93664 27.0563 8.92883C27.6151 8.92438 28.1739 8.92326 28.7316 8.92883C29.6213 8.93775 30.0739 9.36696 30.0985 10.2577C30.1208 11.0559 30.1108 11.8552 30.1119 12.6534C30.113 15.29 30.1119 11.3636 30.1119 14.0001H30.1052Z" fill="currentColor"/>
<path d="M12.349 20.2096C12.349 16.8663 12.3478 13.5241 12.349 10.1807C12.349 9.14059 12.7871 8.70246 13.8421 8.68351C14.4009 8.67348 14.9597 8.67125 15.5174 8.67794C16.4316 8.68908 16.8809 9.12386 16.9066 10.0492C16.9279 10.8284 16.9178 11.6088 16.9178 12.3892C16.9223 16.9387 16.9256 21.4894 16.9312 26.039C16.9323 27.2608 17.1525 27.4816 18.3528 27.4794C19.4515 27.4771 20.5501 27.4671 21.6476 27.466C22.5708 27.4649 22.9485 27.8261 22.9608 28.7279C22.9698 29.3589 22.9776 29.991 22.9608 30.622C22.9351 31.5741 22.5205 31.9743 21.5806 31.9754C19.048 31.9788 16.5166 31.9799 13.984 31.9799C12.8474 31.9799 12.3691 31.5083 12.3668 30.3489C12.3601 26.9688 12.3646 23.5886 12.3646 20.2096C12.359 20.2096 12.3534 20.2096 12.3478 20.2096H12.349Z" fill="currentColor"/>
<path d="M20.4786 8.75825C21.0072 8.74933 21.4152 9.13951 21.4107 9.64899C21.4062 10.1328 21.0061 10.5486 20.539 10.5542C20.0427 10.5598 19.6136 10.1429 19.6035 9.64564C19.5946 9.16404 19.9868 8.76605 20.4786 8.75825Z" fill="currentColor"/>
<path d="M20.511 11.7571C21.0429 11.7605 21.3916 12.1005 21.3894 12.6144C21.3872 13.1027 20.9882 13.5108 20.511 13.5108C20.0203 13.5108 19.6023 13.0827 19.6001 12.5765C19.5979 12.0715 19.951 11.7538 20.511 11.7571Z" fill="currentColor"/>
<path fill-rule="evenodd" clip-rule="evenodd" d="M32.9987 20.4227V10.3915C32.9987 9.1563 33.4838 8.66132 34.7143 8.65909C36.9864 8.65575 37.7486 8.65909 40.0778 8.86422C42.3309 9.14292 44.2309 10.0905 44.7897 11.5955C45.3463 13.0946 45.3474 14.2248 45.3485 15.4826L45.3485 15.4974C45.3496 16.6462 44.9573 18.5074 44.9573 18.5074C44.4544 20.2354 43.1881 21.5174 42.1633 21.9076C41.1384 22.2978 39.5346 22.3769 38.6416 22.3859C37.8459 22.3937 37.5542 22.6712 37.5531 23.4617C37.5495 24.9394 37.5523 26.4166 37.5551 27.894C37.5566 28.7382 37.5582 29.5826 37.5586 30.427C37.5586 31.6388 37.2133 31.9844 36.0118 31.9922C35.9153 31.9929 35.8187 31.9936 35.7221 31.9943C35.3347 31.9972 34.9472 32 34.5589 32C33.5329 32 33.0725 31.5775 33.0691 30.563C33.061 28.1048 33.0623 25.6465 33.0637 23.1882C33.0642 22.2664 33.0647 21.3445 33.0647 20.4227H32.9987ZM41 16.1527C41 16.1392 41 16.1256 41 16.1121C41 15.4394 40.9981 15.23 40.9964 15.0444C40.9951 14.8964 40.9938 14.7635 40.9938 14.4232C40.9669 13.4719 40.4704 13.0136 39.4947 13.0041C38.883 12.9981 38.2702 12.9993 37.6573 13.0041C36.5998 13.0115 36.107 13.3897 36.0158 14.302C36.0109 13.7702 36.0062 14.1765 36.0032 14.4818C36.0011 14.5338 36 14.5872 36 14.6422C36 14.8214 36.0009 14.7234 36.0025 14.5591C36.0027 14.5346 36.003 14.5086 36.0032 14.4818C36.0058 14.4197 36.01 14.3598 36.0158 14.302C36.0187 14.6222 36.0217 15.2825 36.0245 16.5098C36.0257 17.5515 36.4915 17.9896 37.5592 17.9979C38.2738 18.0027 38.9885 17.9991 39.7031 17.9896C40.4067 17.9801 40.8419 17.6241 40.9571 16.9431C41.0002 16.6838 41.0001 16.4169 41 16.1527Z" fill="currentColor"/>
<path d="M42.3963 7.55405C42.1109 7.5007 42.1426 7.16249 41.9512 7.07411C41.7428 6.9779 41.4731 6.98909 41.2307 6.98909C38.7592 6.99468 36.2879 7.01146 33.8154 7.01594C31.9533 7.01929 30.9646 6.03705 30.9623 4.17994C30.9623 3.49192 30.9373 2.79607 31.0234 2.11588C31.1797 0.886388 32.1074 0.0406242 33.3612 0.0260807C36.2098 -0.0074814 39.0594 -0.0074814 41.9081 0.0193682C43.1358 0.0316743 44.1655 1.01728 44.2176 2.27698C44.2833 3.87677 44.2335 6.55649 44.2335 7.08194C44.2335 7.6074 42.6817 7.6074 42.3963 7.55405ZM35.0137 5.21589C35.0137 5.20694 35.0137 5.19799 35.0137 5.18904C35.5234 5.18904 36.0343 5.21254 36.5417 5.18233C37.1035 5.14989 37.3616 4.87468 37.3764 4.32762C37.3922 3.76937 37.3968 3.20888 37.3753 2.65063C37.3549 2.12707 37.0469 1.80151 36.5224 1.79256C35.5416 1.7769 34.5595 1.79144 33.5787 1.81829C33.0701 1.83284 32.7733 2.11812 32.7619 2.63273C32.7483 3.21 32.7404 3.78839 32.7619 4.36565C32.7846 4.95747 33.0395 5.19128 33.6546 5.21254C34.1065 5.2282 34.5607 5.21589 35.0137 5.21589ZM39.1105 3.82906C39.1105 4.12664 39.1173 4.16764 39.1094 4.46522C39.0981 4.89817 39.3233 5.15101 39.739 5.16667C40.3959 5.19128 41.0564 5.18569 41.7134 5.14989C42.1483 5.12528 42.3872 4.86797 42.377 4.40929C42.3646 3.83314 42.3883 3.25587 42.3622 2.68084C42.3362 2.11923 42.036 1.84626 41.4652 1.81494C41.2772 1.80487 41.0893 1.80823 40.9013 1.80934C39.7082 1.81233 39.1116 2.40041 39.1116 3.57359L39.1105 3.82906Z" fill="currentColor"/>
</svg>
