<svg width="24" height="24" viewBox="0 0 24 24" fill="none" xmlns="http://www.w3.org/2000/svg">
    <path fill-rule="evenodd" clip-rule="evenodd"
          d="M20.2904 10L3.70953 10C3.20946 10 2.78627 10.3694 2.7187 10.8649L2.53434 12.2168C2.192 14.7273 2.192 17.2727 2.53434 19.7832L2.7187 21.1351C2.78627 21.6306 3.20946 22 3.70953 22L20.2904 22C20.7904 22 21.2136 21.6306 21.2812 21.1351L21.4656 19.7832C21.8079 17.2727 21.8079 14.7273 21.4656 12.2168L21.2812 10.8649C21.2136 10.3694 20.7904 10 20.2904 10ZM3.70953 8C2.20932 8 0.939737 9.10821 0.737039 10.5947L0.552683 11.9466C0.18589 14.6364 0.18589 17.3636 0.552683 20.0534L0.737039 21.4053C0.939737 22.8918 2.20932 24 3.70953 24L20.2904 24C21.7906 24 23.0602 22.8918 23.2629 21.4053L23.4472 20.0534C23.814 17.3636 23.814 14.6364 23.4472 11.9466L23.2629 10.5947C23.0602 9.10821 21.7906 8 20.2904 8L3.70953 8Z"
          fill="currentColor"/>
    <path fill-rule="evenodd" clip-rule="evenodd"
          d="M21.7324 5C21.3866 4.4022 20.7402 4 19.9999 4L3.99995 4C3.25966 4 2.61332 4.4022 2.26751 5C2.09734 5.29417 1.99995 5.63571 1.99995 6L21.9999 6C21.9999 5.63571 21.9026 5.29417 21.7324 5Z"
          fill="currentColor"/>
    <path fill-rule="evenodd" clip-rule="evenodd"
          d="M19.7324 1C19.3866 0.402199 18.7402 0 17.9999 0L5.99995 0C5.25966 0 4.61332 0.402199 4.26751 1C4.09734 1.29417 3.99995 1.63571 3.99995 2L19.9999 2C19.9999 1.63571 19.9026 1.29417 19.7324 1Z"
          fill="currentColor"/>
</svg>
