<svg width="24" height="24" viewBox="0 0 24 24" fill="none" xmlns="http://www.w3.org/2000/svg">
    <path fill-rule="evenodd" clip-rule="evenodd"
          d="M11 5C7.13401 5 4 8.13401 4 12C4 15.866 7.13401 19 11 19C14.866 19 18 15.866 18 12C18 8.13401 14.866 5 11 5ZM2 12C2 7.02944 6.02944 3 11 3C15.9706 3 20 7.02944 20 12C20 14.3352 19.1106 16.4627 17.6521 18.0622C18.0072 17.9308 18.4219 18.0076 18.7071 18.2929L20.7071 20.2929C21.0976 20.6834 21.0976 21.3166 20.7071 21.7071C20.3166 22.0976 19.6834 22.0976 19.2929 21.7071L17.2929 19.7071C17.0076 19.4219 16.9308 19.0072 17.0622 18.6521C15.4627 20.1106 13.3352 21 11 21C6.02944 21 2 16.9706 2 12Z"
          fill="currentColor"/>
</svg>
