<svg width="24" height="24" viewBox="0 0 24 24" fill="none" xmlns="http://www.w3.org/2000/svg">
    <path fill-rule="evenodd" clip-rule="evenodd"
          d="M11.2929 2.29289C11.6834 1.90237 12.3166 1.90237 12.7071 2.29289L16.7071 6.29289C17.0976 6.68342 17.0976 7.31658 16.7071 7.70711C16.3166 8.09763 15.6834 8.09763 15.2929 7.70711L13 5.41421L13 15C13 15.5523 12.5523 16 12 16C11.4477 16 11 15.5523 11 15L11 5.41421L8.70711 7.70711C8.31658 8.09763 7.68342 8.09763 7.29289 7.70711C6.90237 7.31658 6.90237 6.68342 7.29289 6.29289L11.2929 2.29289ZM6 11C5.44772 11 5 11.4477 5 12L5 19C5 19.5523 5.44772 20 6 20L18 20C18.5523 20 19 19.5523 19 19L19 12C19 11.4477 18.5523 11 18 11H17C16.4477 11 16 10.5523 16 10C16 9.44772 16.4477 9 17 9H18C19.6569 9 21 10.3431 21 12L21 19C21 20.6569 19.6569 22 18 22L6 22C4.34315 22 3 20.6569 3 19L3 12C3 10.3431 4.34315 9 6 9H7C7.55228 9 8 9.44772 8 10C8 10.5523 7.55228 11 7 11H6Z"
          fill="currentColor"/>
</svg>
